<?xml version="1.0" encoding="UTF-8"?><svg xmlns="http://www.w3.org/2000/svg" xmlns:xlink="http://www.w3.org/1999/xlink" version="1.1" id="Layer_1" x="0px" y="0px" viewBox="0 0 128 128" xml:space="preserve"><style type="text/css">.st0{fill:#6D75B7;}</style><path class="st0" d="M64 0C28.7 0 0 28.7 0 64s28.7 64 64 64 64-28.7 64-64S99.3 0 64 0zm0 123C31.5 123 5 96.5 5 64S31.5 5 64 5s59 26.5 59 59-26.5 59-59 59z" fill="#6D75B7"/><path class="st0" d="M48.6 16.4c-.4-1-1.5-1.6-2.6-1.2-13 4.8-23.4 14.4-29.2 27S10.4 68.9 15.2 82c.3.8 1.1 1.3 1.9 1.3.2 0 .5 0 .7-.1 1-.4 1.6-1.5 1.2-2.6-4.4-12-3.9-25.1 1.5-36.7 5.4-11.6 15-20.5 27-24.9 1-.4 1.5-1.6 1.1-2.6z" fill="#6D75B7"/><path class="st0" d="M112.8 46c-.4-1-1.5-1.6-2.6-1.2-1 .4-1.6 1.5-1.2 2.6 4.4 12 3.9 25.1-1.5 36.7-5.4 11.6-15 20.5-27 24.9-1 .4-1.6 1.5-1.2 2.6.3.8 1.1 1.3 1.9 1.3.2 0 .5 0 .7-.1 13-4.8 23.4-14.4 29.2-27s6.5-26.7 1.7-39.8z" fill="#6D75B7"/><path class="st0" d="M32.2 63.9v.2c0 .1 0 .1.1.2 0 .1 0 .1.1.2 0 .1.1.1.1.2s.1.1.1.2l.1.1.2.2s.1 0 .1.1l.2.2L63 82.8h.1c.1.1.2.1.3.1h.1c.2 0 .3.1.5.1s.3 0 .5-.1h.1c.1 0 .2-.1.3-.1h.1l29.9-17.5s.1 0 .1-.1l.3-.3.1-.1c.1-.1.2-.3.3-.4 0-.1 0-.1.1-.2 0-.1 0-.1.1-.2v-.2-.2-.2-.2c0-.1 0-.1-.1-.2v-.2c0-.1-.1-.1-.1-.2 0 0 0-.1-.1-.1L65.7 12.9c-.1-.1-.2-.3-.3-.4h-.1c-.1-.1-.2-.2-.3-.2 0 0-.1 0-.1-.1-.1-.1-.2-.1-.3-.1h-.1c-.2-.1-.3-.1-.5-.1s-.3 0-.5.1h-.1c-.1 0-.2.1-.3.1 0 0-.1 0-.1.1-.1.1-.2.1-.3.2h-.1c-.1.1-.2.2-.3.4L32.4 62.6s0 .1-.1.1c0 .1-.1.1-.1.2v.2c0 .1 0 .1-.1.2v.4c0 .1 0 .1.1.2zM62 77.6L38.5 63.8 62 53.2v24.4zm4-24.4l23.5 10.7L66 77.6V53.2zm0-4.4V21.2l22.8 38L66 48.8zm-4 0L39.2 59.1l22.8-38v27.7z" fill="#6D75B7"/><path class="st0" d="M95.3 70.3c-.6-.7-1.7-.8-2.5-.4L64 87.2 35.2 69.9c-.8-.5-1.9-.3-2.5.4-.7.7-.7 1.7-.2 2.5l29.9 42c.4.5 1 .8 1.6.8s1.3-.3 1.6-.8l29.9-42c.5-.8.5-1.8-.2-2.5zM62 90.7v16.7L41.3 78.3 62 90.7zm4 16.7V90.7l20.7-12.4L66 107.4z" fill="#6D75B7"/><metadata><rdf:RDF xmlns:rdf="http://www.w3.org/1999/02/22-rdf-syntax-ns#" xmlns:rdfs="http://www.w3.org/2000/01/rdf-schema#" xmlns:dc="http://purl.org/dc/elements/1.1/"><rdf:Description about="https://iconscout.com/legal#licenses" dc:title="ethereum" dc:description="ethereum" dc:publisher="Iconscout" dc:date="2018-01-14" dc:format="image/svg+xml" dc:language="en"><dc:creator><rdf:Bag><rdf:li>Icon Mafia</rdf:li></rdf:Bag></dc:creator></rdf:Description></rdf:RDF></metadata></svg>