<?xml version="1.0" standalone="no"?>
<!DOCTYPE svg PUBLIC "-//W3C//DTD SVG 20010904//EN"
 "http://www.w3.org/TR/2001/REC-SVG-20010904/DTD/svg10.dtd">
<svg version="1.0" xmlns="http://www.w3.org/2000/svg"
 width="700.000000pt" height="700.000000pt" viewBox="0 0 700.000000 700.000000"
 preserveAspectRatio="xMidYMid meet">
<metadata>
Created by potrace 1.11, written by Peter Selinger 2001-2013
</metadata>
<g transform="translate(0.000000,700.000000) scale(0.100000,-0.100000)"
fill="#000000" stroke="none">
<path d="M3430 6970 c-16 -14 -69 -92 -118 -175 -49 -82 -322 -537 -607 -1010
-285 -473 -641 -1065 -791 -1315 -150 -250 -278 -460 -284 -467 -5 -7 -10 -14
-10 -17 0 -2 -59 -102 -132 -222 -92 -154 -131 -227 -131 -249 0 -42 28 -81
77 -109 23 -13 214 -125 426 -249 212 -124 401 -234 420 -245 19 -10 136 -78
258 -151 123 -72 226 -131 229 -131 3 0 17 -8 31 -19 15 -10 43 -28 63 -39 20
-11 161 -93 315 -183 247 -144 284 -163 324 -164 48 0 33 -9 880 488 140 82
272 159 292 171 122 70 221 127 558 324 393 229 418 248 414 310 -1 19 -44
101 -110 209 -59 98 -258 428 -442 733 -184 305 -426 705 -536 888 -111 183
-208 345 -217 360 -9 15 -155 257 -324 537 -169 281 -315 524 -325 540 -79
138 -113 184 -144 199 -45 21 -81 17 -116 -14z m-40 -1474 l0 -994 -39 -16
c-22 -8 -142 -62 -268 -119 -125 -57 -250 -115 -278 -127 -27 -12 -77 -35
-110 -50 -182 -83 -396 -180 -440 -200 -27 -12 -92 -42 -144 -66 -51 -24 -95
-44 -97 -44 -1 0 -42 -19 -91 -41 -48 -23 -108 -50 -132 -60 l-43 -19 19 32
c11 18 25 42 32 53 6 11 76 128 155 260 440 733 625 1042 688 1145 38 63 80
133 93 155 12 22 156 261 319 530 163 270 304 505 313 523 9 17 18 32 20 32 2
0 3 -447 3 -994z m499 534 c5 -8 40 -66 78 -129 37 -62 75 -125 84 -140 128
-211 1181 -1967 1189 -1981 11 -20 10 -20 -22 -6 -57 25 -301 136 -353 161
-27 13 -273 125 -545 248 -272 124 -533 243 -580 265 -47 21 -95 42 -107 46
l-23 7 0 997 0 997 135 -225 c74 -124 139 -232 144 -240z m-499 -2640 c0 -478
-2 -870 -5 -870 -3 0 -31 16 -61 35 -30 19 -56 35 -58 35 -2 0 -699 405 -756
439 -112 68 -507 297 -517 299 -7 2 -13 8 -13 13 0 5 -4 9 -9 9 -12 0 -231
128 -251 146 -9 9 -10 14 -2 14 6 0 42 14 79 31 38 17 111 50 163 74 52 24
124 57 160 73 36 17 137 63 225 102 88 40 187 85 220 100 33 16 87 40 120 55
33 15 107 49 165 75 58 26 128 58 155 70 28 12 82 37 120 55 39 17 104 47 145
65 41 19 79 37 85 42 35 30 35 31 35 -862z m394 796 c89 -40 382 -174 651
-296 270 -122 523 -238 563 -256 41 -19 75 -34 76 -34 2 0 52 -23 111 -50
l108 -51 -344 -201 c-189 -110 -357 -208 -374 -218 -16 -10 -178 -104 -360
-210 -181 -106 -343 -201 -360 -210 -16 -9 -66 -38 -110 -65 -44 -26 -92 -53
-107 -61 l-28 -15 0 871 c0 478 3 870 7 870 3 0 79 -33 167 -74z"/>
<path d="M1422 3063 c-57 -27 -76 -110 -39 -166 8 -12 65 -92 126 -177 61 -85
115 -162 121 -170 6 -8 62 -87 126 -175 63 -88 122 -171 132 -185 9 -14 252
-355 539 -758 288 -403 523 -737 523 -742 0 -4 4 -10 8 -12 5 -1 108 -142 230
-313 121 -171 230 -320 241 -332 29 -31 74 -38 108 -18 17 10 266 351 608 831
319 448 651 915 738 1037 87 122 165 231 173 242 8 11 98 137 200 280 101 143
191 267 198 276 7 8 21 30 32 47 10 18 22 32 26 32 4 0 8 4 8 10 0 5 19 36 43
67 74 102 79 119 51 178 -20 42 -65 65 -108 55 -18 -4 -199 -107 -402 -230
-203 -123 -382 -231 -399 -240 -16 -9 -293 -175 -615 -369 -362 -218 -590
-349 -600 -346 -12 5 -148 85 -230 135 -66 41 -240 146 -264 160 -17 9 -164
97 -326 195 -162 98 -308 185 -325 195 -16 10 -211 126 -431 259 -221 133
-415 243 -431 245 -16 2 -44 -3 -61 -11z m718 -628 c146 -87 279 -166 295
-175 17 -10 199 -118 406 -242 206 -123 382 -228 390 -232 8 -3 46 -26 84 -50
l70 -43 3 -619 2 -619 -32 46 c-150 210 -653 916 -820 1150 -115 160 -208 295
-208 299 0 5 -4 10 -8 12 -5 2 -110 146 -235 321 -124 175 -223 316 -219 314
4 -3 126 -75 272 -162z m2975 138 c-10 -14 -68 -97 -129 -182 -61 -86 -118
-166 -126 -177 -21 -30 -165 -233 -222 -313 -26 -36 -60 -84 -76 -106 -98
-139 -431 -608 -458 -645 -18 -25 -99 -137 -178 -250 -80 -113 -168 -236 -195
-275 -28 -38 -67 -92 -86 -120 l-35 -50 2 619 3 620 90 54 c50 30 104 62 120
72 23 13 418 250 780 468 212 128 521 312 524 312 2 0 -5 -12 -14 -27z"/>
</g>
</svg>
